<svg xmlns="http://www.w3.org/2000/svg" xmlns:xlink="http://www.w3.org/1999/xlink" width="1080" zoomAndPan="magnify" viewBox="0 0 810 809.999993" height="1080" preserveAspectRatio="xMidYMid meet" version="1.0"><path fill="#00553f" d="M 405.160156 113.53125 L 187.300781 242.632812 L 187.300781 477.78125 L 404.007812 606.882812 L 424.757812 595.355469 L 424.757812 404.007812 L 493.917969 355.59375 L 495.070312 306.027344 L 384.414062 378.648438 L 383.257812 541.179688 L 232.257812 451.269531 L 232.257812 267.992188 L 405.160156 166.554688 L 575.757812 269.144531 L 574.605469 452.421875 L 457.03125 526.195312 L 457.03125 575.757812 L 619.5625 478.933594 L 619.5625 241.476562 Z M 405.160156 113.53125 " fill-opacity="1" fill-rule="nonzero"/><path fill="#00553f" d="M 187.300781 542.332031 L 188.453125 594.203125 L 402.855469 719.847656 L 619.5625 594.203125 L 618.410156 541.179688 L 402.855469 667.976562 Z M 187.300781 542.332031 " fill-opacity="1" fill-rule="nonzero"/><path fill="#00553f" d="M 407.464844 255.3125 L 326.777344 308.335938 L 369.425781 337.152344 L 421.296875 299.113281 Z M 407.464844 255.3125 " fill-opacity="1" fill-rule="nonzero"/></svg>